<svg version="1.0" xmlns="http://www.w3.org/2000/svg" width="12pt" height="12pt" viewBox="0 0 200.000000 200.000000" preserveAspectRatio="xMidYMid meet"><g transform="translate(0.000000,200.000000) scale(0.100000,-0.100000)" fill="#000000" stroke="none"><path d="M434 1980 c-194 -51 -338 -185 -402 -374 l-27 -81 0 -520 c0 -476 2 -525 18 -579 62 -199 204 -341 403 -403 54 -16 103 -18 579 -18 l520 0 80 27 c195 67 336 222 380 421 14 63 16 141 13 582 l-3 510 -26 67 c-71 182 -175 286 -358 357 l-66 26 -520 2 c-483 2 -525 1 -591 -17z m236 -390 c0 -109 2 -120 18 -120 29 0 42 21 42 67 l0 43 270 0 269 0 3 63 3 62 48 3 47 3 0 -120 c0 -99 3 -121 14 -121 21 0 46 40 46 72 0 26 1 27 32 16 17 -6 51 -30 74 -54 73 -73 75 -89 72 -561 -3 -398 -4 -409 -25 -449 -30 -57 -83 -100 -145 -119 -73 -21 -800 -22 -872 -1 -66 20 -110 57 -140 118 l-26 52 0 425 c0 394 2 429 19 466 23 50 74 99 124 120 l37 15 0 63 c0 35 3 67 7 70 3 4 24 7 45 7 l38 0 0 -120z"></path><path d="M640 1312 c-33 -27 -39 -99 -10 -134 19 -24 29 -28 74 -28 70 0 86 18 86 93 0 46 -4 58 -22 71 -31 22 -100 20 -128 -2z"></path><path d="M935 1305 c-33 -32 -35 -105 -5 -135 25 -25 105 -27 138 -4 31 21 32 114 2 144 -30 30 -103 28 -135 -5z"></path> <path d="M1230 1310 c-15 -15 -20 -33 -20 -70 0 -68 22 -90 90 -90 67 0 90 22 90 89 0 42 -4 53 -26 70 -36 28 -106 29 -134 1z"></path> <path d="M629 1003 c-8 -9 -14 -39 -14 -68 0 -71 14 -85 86 -85 74 0 89 14 89 85 0 71 -15 85 -89 85 -42 0 -62 -5 -72 -17z"></path> <path d="M926 998 c-9 -12 -16 -41 -16 -63 0 -65 20 -85 89 -85 74 0 91 17 91 87 0 67 -18 83 -93 83 -46 0 -58 -4 -71 -22z"></path> <path d="M634 699 c-29 -32 -26 -115 5 -140 29 -23 98 -25 129 -3 18 13 22 25 22 73 0 74 -17 91 -87 91 -38 0 -54 -5 -69 -21z"></path> <path d="M936 707 c-12 -9 -20 -31 -24 -65 -4 -44 -1 -54 21 -76 20 -20 36 -26 72 -26 62 0 85 24 85 90 0 67 -22 90 -88 90 -27 0 -56 -6 -66 -13z"></path> <path d="M1230 700 c-15 -15 -20 -33 -20 -70 0 -65 23 -90 84 -90 66 0 96 28 96 91 0 67 -23 89 -90 89 -37 0 -55 -5 -70 -20z"></path></g></svg>